<?xml version="1.0" encoding="utf-8"?>
<!-- Generator: Adobe Illustrator 16.0.0, SVG Export Plug-In . SVG Version: 6.00 Build 0)  -->
<!DOCTYPE svg PUBLIC "-//W3C//DTD SVG 1.1//EN" "http://www.w3.org/Graphics/SVG/1.1/DTD/svg11.dtd">
<svg version="1.1" id="Layer_1" xmlns="http://www.w3.org/2000/svg" xmlns:xlink="http://www.w3.org/1999/xlink" x="0px" y="0px"
	 width="266.101px" height="233.898px" viewBox="0 0 266.101 233.898" enable-background="new 0 0 266.101 233.898"
	 xml:space="preserve">
<text transform="matrix(1 0 0 1 47.2881 46.4409)" fill="#FFFFFF" font-family="'BebasNeue'" font-size="12">JoJjio</text>
<g>
	<path fill="#FFFFFF" d="M81.99,116.033v52.9c0,19.32-8.431,25.85-22.311,26.67c-3.26,0-7.07,0-10.609-0.27v19.32
		c4.619,0.539,8.43,0.27,13.33,0.27c22.859-0.539,40.549-11.699,40.549-47.35v-51.541H81.99z"/>
	<path fill="#FFFFFF" d="M190.83,116.033v52.361c0,17.41-7.34,26.939-22.58,26.939h-23.131v-79.301H123.89v98.621h44.63
		c29.66,0,43.27-17.961,43.27-47.08v-51.541H190.83z"/>
</g>
<path fill="#FFFFFF" d="M211.789,71.513v25.2H190.83v-26.29c0-15.23-5.621-24.43-17.42-26.5c-1.681-0.29-3.49-0.44-5.431-0.44
	h-22.86v53.23H123.89v-52.79h-20.94v52.79H81.99v-52.79H49.07v-19.76H168.52c2.84,0,5.54,0.17,8.09,0.49
	C200.67,27.713,211.789,44.943,211.789,71.513z"/>
<path fill="#FFFFFF" d="M173.41,43.923h-28.291v-0.44h22.86C169.92,43.483,171.729,43.633,173.41,43.923z"/>
<path fill="#FFFFFF" d="M176.609,24.164v0.49c-2.55-0.32-5.25-0.49-8.09-0.49H176.609z"/>
<rect x="211.789" y="96.713" fill="#FFFFFF" width="20.959" height="19.32"/>
</svg>
